<svg width="362" height="250" viewBox="0 0 362 250" fill="none" xmlns="http://www.w3.org/2000/svg">
<g filter="url(#filter0_ii_949_3297)">
<path d="M351.294 86.5562C356.343 55.4334 335.124 26.1307 303.903 21.098C291.97 19.1757 280.306 21.0812 270.163 25.8997C262.061 18.1384 251.592 12.668 239.659 10.7458C208.438 5.70648 179.031 26.8564 173.982 57.9793C172.168 69.1401 173.738 80.0723 177.939 89.7295C170.905 97.5752 165.955 107.459 164.149 118.619C159.1 149.742 180.319 179.044 211.54 184.077C223.473 185.999 235.137 184.094 245.28 179.275C253.382 187.037 263.851 192.507 275.784 194.43C307.011 199.461 336.411 178.312 341.461 147.196C343.275 136.036 341.705 125.103 337.503 115.446C344.538 107.6 349.488 97.7166 351.294 86.5562Z" fill="url(#paint0_radial_949_3297)"/>
</g>
<path d="M237.029 87.4604C237.06 82.2175 234.693 77.9535 231.743 77.9366C228.794 77.9196 226.378 82.1562 226.348 87.3992C226.318 92.6423 228.684 96.9061 231.634 96.9233C234.584 96.9405 236.999 92.7035 237.029 87.4604Z" fill="#111111"/>
<path d="M268.608 89.9463C268.639 84.7029 266.272 80.4388 263.322 80.4219C260.372 80.4049 257.957 84.6416 257.927 89.8842C257.896 95.1274 260.263 99.392 263.213 99.4084C266.162 99.4256 268.578 95.1886 268.608 89.9463Z" fill="#111111"/>
<path d="M336.992 113.031C348.638 120.607 365.19 142.47 338.225 169.311C337.767 172.427 338.396 178.955 344.582 180.147" stroke="black" stroke-width="7" stroke-linecap="round" stroke-linejoin="round"/>
<path d="M269.497 21.7374C262.111 19.4151 253.738 18.8722 246.272 21.15C239.204 23.3085 232.42 29.2279 232.675 37.1439C232.909 44.4968 239.305 50.9642 246.456 52.1037C253.16 53.1698 259.674 48.9229 260.591 41.9978C261.698 33.6109 250.121 28.9116 245.268 36.0663C243.506 38.6606 247.26 41.8503 249.033 39.2287C250.824 36.586 255.511 37.0416 255.753 40.5628C255.905 42.8037 254.253 45.2901 252.421 46.4513C246.868 49.9857 239.101 44.2001 237.83 38.6637C236.21 31.6127 243.299 26.8503 249.267 25.4096C255.597 23.8789 262.446 24.6304 268.598 26.5647C271.62 27.5168 272.484 22.6726 269.497 21.7374Z" fill="#111111"/>
<g filter="url(#filter1_f_949_3297)">
<path d="M284.02 106.173C286.008 106.004 287.482 104.26 287.313 102.278C287.144 100.297 285.395 98.8277 283.407 98.9972C281.419 99.1668 279.944 100.911 280.113 102.892C280.283 104.874 282.032 106.343 284.02 106.173Z" fill="white" fill-opacity="0.5"/>
</g>
<path d="M176.118 89.8293C164.115 89.6121 138.408 85.919 131.599 72.8853" stroke="black" stroke-width="8" stroke-linecap="round"/>
<path d="M235.632 110.493C242.182 115.285 250.759 116.422 256.948 110.458C259.209 108.282 255.465 105.154 253.227 107.311C249.072 111.309 243 109.869 238.794 106.791C236.274 104.946 233.095 108.639 235.632 110.493Z" fill="#040000"/>
<g filter="url(#filter2_ii_949_3297)">
<path d="M111.659 238.017C147.73 233.747 173.496 201.198 169.21 165.317C164.924 129.436 132.207 103.81 96.1361 108.08C60.0653 112.35 34.2986 144.898 38.5849 180.779C42.8713 216.66 75.5873 242.286 111.659 238.017Z" fill="url(#paint1_radial_949_3297)"/>
</g>
<path d="M42.0988 186.658C42.4908 191.543 35.5678 213.585 17.1277 217.63" stroke="#040000" stroke-width="8" stroke-linecap="round" stroke-linejoin="round"/>
<path d="M163.85 158.872C168.595 157.551 178.553 152.133 180.435 141.005" stroke="#040000" stroke-width="8" stroke-linecap="round" stroke-linejoin="round"/>
<path d="M53.3477 134.177C76.9576 143.464 103.943 141.483 126.267 129.348C130.62 126.981 135.737 124.301 138.591 120.251C139.881 118.421 140.443 115.987 139.418 114.047C137.654 110.707 132.394 110.208 128.903 110.079" stroke="#040000" stroke-width="8" stroke-linecap="round"/>
<path d="M92.4625 172.467C94.9133 172.055 96.3007 168.195 95.5629 163.846C94.8241 159.496 92.239 156.303 89.789 156.715C87.3382 157.128 85.9502 160.988 86.6887 165.337C87.4265 169.687 90.0116 172.879 92.4625 172.467Z" fill="#111111"/>
<path d="M115.522 168.587C117.972 168.175 119.36 164.315 118.623 159.966C117.884 155.616 115.299 152.424 112.848 152.836C110.398 153.248 109.01 157.108 109.748 161.457C110.486 165.807 113.071 168.999 115.522 168.587Z" fill="#111111"/>
<path d="M95.3074 184.306C102.815 187.408 111.417 186.479 116.002 179.219C117.678 176.571 113.293 174.42 111.635 177.046C108.556 181.914 102.314 181.953 97.4932 179.962C94.6042 178.766 92.4001 183.107 95.3074 184.306Z" fill="#040000"/>
<g filter="url(#filter3_f_949_3297)">
<path d="M76.5217 186.157C78.459 185.759 79.7056 183.875 79.306 181.948C78.9064 180.021 77.012 178.781 75.0747 179.179C73.1374 179.576 71.8908 181.461 72.2904 183.388C72.69 185.315 74.5844 186.555 76.5217 186.157Z" fill="white" fill-opacity="0.5"/>
</g>
<defs>
<filter id="filter0_ii_949_3297" x="163.406" y="2.00342" width="188.631" height="201.167" filterUnits="userSpaceOnUse" color-interpolation-filters="sRGB">
<feFlood flood-opacity="0" result="BackgroundImageFix"/>
<feBlend mode="normal" in="SourceGraphic" in2="BackgroundImageFix" result="shape"/>
<feColorMatrix in="SourceAlpha" type="matrix" values="0 0 0 0 0 0 0 0 0 0 0 0 0 0 0 0 0 0 127 0" result="hardAlpha"/>
<feOffset dy="8"/>
<feGaussianBlur stdDeviation="10"/>
<feComposite in2="hardAlpha" operator="arithmetic" k2="-1" k3="1"/>
<feColorMatrix type="matrix" values="0 0 0 0 1 0 0 0 0 1 0 0 0 0 1 0 0 0 0.25 0"/>
<feBlend mode="normal" in2="shape" result="effect1_innerShadow_949_3297"/>
<feColorMatrix in="SourceAlpha" type="matrix" values="0 0 0 0 0 0 0 0 0 0 0 0 0 0 0 0 0 0 127 0" result="hardAlpha"/>
<feOffset dy="-8"/>
<feGaussianBlur stdDeviation="20"/>
<feComposite in2="hardAlpha" operator="arithmetic" k2="-1" k3="1"/>
<feColorMatrix type="matrix" values="0 0 0 0 0.132559 0 0 0 0 0.449283 0 0 0 0 0.669231 0 0 0 1 0"/>
<feBlend mode="normal" in2="effect1_innerShadow_949_3297" result="effect2_innerShadow_949_3297"/>
</filter>
<filter id="filter1_f_949_3297" x="276.1" y="94.9839" width="15.2261" height="15.2026" filterUnits="userSpaceOnUse" color-interpolation-filters="sRGB">
<feFlood flood-opacity="0" result="BackgroundImageFix"/>
<feBlend mode="normal" in="SourceGraphic" in2="BackgroundImageFix" result="shape"/>
<feGaussianBlur stdDeviation="2" result="effect1_foregroundBlur_949_3297"/>
</filter>
<filter id="filter2_ii_949_3297" x="38.119" y="103.615" width="131.557" height="138.867" filterUnits="userSpaceOnUse" color-interpolation-filters="sRGB">
<feFlood flood-opacity="0" result="BackgroundImageFix"/>
<feBlend mode="normal" in="SourceGraphic" in2="BackgroundImageFix" result="shape"/>
<feColorMatrix in="SourceAlpha" type="matrix" values="0 0 0 0 0 0 0 0 0 0 0 0 0 0 0 0 0 0 127 0" result="hardAlpha"/>
<feOffset dy="4"/>
<feGaussianBlur stdDeviation="2"/>
<feComposite in2="hardAlpha" operator="arithmetic" k2="-1" k3="1"/>
<feColorMatrix type="matrix" values="0 0 0 0 1 0 0 0 0 1 0 0 0 0 1 0 0 0 0.25 0"/>
<feBlend mode="normal" in2="shape" result="effect1_innerShadow_949_3297"/>
<feColorMatrix in="SourceAlpha" type="matrix" values="0 0 0 0 0 0 0 0 0 0 0 0 0 0 0 0 0 0 127 0" result="hardAlpha"/>
<feOffset dy="-4"/>
<feGaussianBlur stdDeviation="15"/>
<feComposite in2="hardAlpha" operator="arithmetic" k2="-1" k3="1"/>
<feColorMatrix type="matrix" values="0 0 0 0 0 0 0 0 0 0 0 0 0 0 0 0 0 0 0.25 0"/>
<feBlend mode="normal" in2="effect1_innerShadow_949_3297" result="effect2_innerShadow_949_3297"/>
</filter>
<filter id="filter3_f_949_3297" x="68.2158" y="175.104" width="15.1648" height="15.127" filterUnits="userSpaceOnUse" color-interpolation-filters="sRGB">
<feFlood flood-opacity="0" result="BackgroundImageFix"/>
<feBlend mode="normal" in="SourceGraphic" in2="BackgroundImageFix" result="shape"/>
<feGaussianBlur stdDeviation="2" result="effect1_foregroundBlur_949_3297"/>
</filter>
<radialGradient id="paint0_radial_949_3297" cx="0" cy="0" r="1" gradientUnits="userSpaceOnUse" gradientTransform="translate(236.649 96.3338) rotate(40.8411) scale(179.758 182.034)">
<stop stop-color="#A3D9F6"/>
<stop offset="1" stop-color="#87B8D2"/>
</radialGradient>
<radialGradient id="paint1_radial_949_3297" cx="0" cy="0" r="1" gradientUnits="userSpaceOnUse" gradientTransform="translate(103.897 173.048) rotate(145.07) scale(106.316 106.109)">
<stop stop-color="#E5DAFF"/>
<stop offset="1" stop-color="#BFA4FF"/>
</radialGradient>
</defs>
</svg>
