<svg width="24" height="24" viewBox="0 0 24 24" fill="none" xmlns="http://www.w3.org/2000/svg">
<path fill-rule="evenodd" clip-rule="evenodd" d="M13.1739 3.5968C13.8662 3.2047 14.6859 3.10369 15.4527 3.31598C15.7927 3.41011 16.0833 3.57409 16.3571 3.7593C16.6172 3.9352 16.9155 4.16808 17.2613 4.43799L17.3117 4.47737C17.6575 4.74728 17.9559 4.98016 18.1897 5.18977C18.4358 5.41046 18.6654 5.65248 18.8393 5.95945C19.2314 6.65177 19.3324 7.47151 19.1201 8.23831C19.026 8.5783 18.862 8.86883 18.6768 9.14267C18.5009 9.40276 18.2679 9.70112 17.998 10.0469L10.8953 19.1462C10.8773 19.1692 10.8596 19.1919 10.8421 19.2144C10.5086 19.6419 10.2565 19.9651 9.94447 20.2306C9.68033 20.4553 9.38808 20.6447 9.07509 20.794C8.70532 20.9704 8.3073 21.0685 7.78081 21.1983C7.75321 21.2051 7.72525 21.212 7.69693 21.219L5.57211 21.7435C5.42496 21.7799 5.25699 21.8215 5.10881 21.8442C4.94364 21.8696 4.68786 21.8926 4.40536 21.8022C4.06576 21.6934 3.776 21.4672 3.58806 21.1642C3.43172 20.9121 3.39194 20.6584 3.37647 20.492C3.36259 20.3427 3.3621 20.1697 3.36167 20.0181C3.36164 20.0087 3.36162 19.9994 3.36159 19.9902L3.35472 17.8295C3.35462 17.8003 3.35452 17.7715 3.35442 17.7431C3.35247 17.2009 3.351 16.7909 3.43237 16.3894C3.50125 16.0495 3.61403 15.72 3.76788 15.4093C3.94964 15.0421 4.20201 14.7191 4.53583 14.2918C4.55333 14.2694 4.57106 14.2467 4.58902 14.2237L11.6918 5.12435C11.9617 4.77856 12.1946 4.48019 12.4042 4.2464C12.6249 4.00025 12.8669 3.77065 13.1739 3.5968ZM14.9191 5.24347C14.6635 5.17271 14.3903 5.20638 14.1595 5.33708C14.1203 5.35928 14.0459 5.41135 13.8933 5.5815C13.7348 5.75836 13.5438 6.00211 13.2487 6.38018L16.4018 8.84145C16.6969 8.46338 16.887 8.21896 17.0201 8.02221C17.1481 7.83291 17.1806 7.74808 17.1926 7.70467C17.2634 7.44907 17.2297 7.17583 17.099 6.94505C17.0768 6.90586 17.0247 6.83145 16.8546 6.6789C16.6777 6.52033 16.434 6.32938 16.0559 6.03426C15.6778 5.73914 15.4334 5.54904 15.2366 5.41597C15.0473 5.28794 14.9625 5.25549 14.9191 5.24347ZM15.1712 10.418L12.018 7.95674L6.16558 15.4543C5.75582 15.9792 5.64027 16.135 5.56028 16.2966C5.48336 16.452 5.42696 16.6167 5.39253 16.7866C5.35672 16.9633 5.35259 17.1572 5.35471 17.8231L5.36079 19.7357L7.21756 19.2773C7.86408 19.1177 8.05116 19.0666 8.21388 18.9889C8.37038 18.9143 8.5165 18.8196 8.64858 18.7072C8.7859 18.5904 8.90894 18.4405 9.31869 17.9156L15.1712 10.418ZM12 21C12 20.4477 12.4477 20 13 20H20C20.5523 20 21 20.4477 21 21C21 21.5523 20.5523 22 20 22H13C12.4477 22 12 21.5523 12 21Z" fill="#324160"/>
</svg>
