<svg width="25" height="24" viewBox="0 0 25 24" fill="none" xmlns="http://www.w3.org/2000/svg">
<path d="M12.0817 3C9.64752 3 7.67426 4.95716 7.67426 7.37143C7.67426 9.7857 9.64752 11.7429 12.0817 11.7429C14.5158 11.7429 16.4891 9.7857 16.4891 7.37143C16.4891 4.95716 14.5158 3 12.0817 3Z" fill="#324160"/>
<path d="M14.6826 13.6877C12.9596 13.4149 11.2038 13.4149 9.48071 13.6877L9.29601 13.7169C6.86814 14.1012 5.08167 16.1783 5.08167 18.6168C5.08167 19.933 6.15743 21 7.48445 21H16.6789C18.0059 21 19.0817 19.933 19.0817 18.6168C19.0817 16.1783 17.2952 14.1012 14.8673 13.7169L14.6826 13.6877Z" fill="#324160"/>
</svg>
